<svg width="4401" height="586" xmlns="http://www.w3.org/2000/svg" xmlns:xlink="http://www.w3.org/1999/xlink" xml:space="preserve" overflow="hidden"><defs><clipPath id="clip0"><rect x="0" y="993" width="4401" height="586"/></clipPath></defs><g clip-path="url(#clip0)" transform="matrix(1 0 0 1 0 -993)"><path d="M0.489001 1513.65C77.7626 1516.88 135.713 1405.82 174.34 1180.49 212.967 955.156 248.39 955.156 280.589 1180.49 312.768 1405.82 361.066 1518.49 425.464 1518.49 489.842 1518.49 538.121 1476.64 570.34 1392.97 602.539 1309.25 631.494 1309.25 657.226 1392.97 682.997 1476.64 728.071 1516.88 792.489 1513.65" stroke="#47B7D1" stroke-width="20.6041" stroke-miterlimit="8" fill="none" fill-rule="evenodd"/><path d="M797.061 1327.04 797.061 1012.04 886.873 1012.04C910.559 1012.04 931.184 1014.94 948.789 1020.7 966.433 1026.48 980.203 1036.17 990.118 1049.77 1000.07 1063.34 1005.06 1081.67 1005.06 1104.75 1005.06 1137.7 994.331 1162.19 972.871 1178.24 951.411 1194.24 923.375 1202.23 888.781 1202.23L836.96 1202.23 836.96 1327.04ZM836.96 1169.58 884.012 1169.58C911.552 1169.58 931.959 1164.39 945.212 1154.01 958.505 1143.58 965.161 1127.15 965.161 1104.75 965.161 1082.03 958.187 1066.28 944.258 1057.48 930.369 1048.64 909.644 1044.21 882.105 1044.21L836.96 1044.21Z" fill="#FFFFFF" fill-rule="evenodd"/><path d="M1065.08 1327.04 1065.08 1093.83 1097.83 1093.83 1101.18 1136 1102.61 1136C1110.62 1121.29 1120.4 1109.61 1131.93 1100.98 1143.51 1092.36 1155.88 1088.04 1169.06 1088.04 1178.35 1088.04 1186.69 1089.66 1194.08 1092.88L1186.43 1127.42C1182.55 1126.15 1178.98 1125.2 1175.76 1124.56 1172.57 1123.89 1168.58 1123.53 1163.8 1123.53 1153.8 1123.53 1143.43 1127.56 1132.65 1135.6 1121.91 1143.6 1112.53 1157.49 1104.52 1177.28L1104.52 1327.04Z" fill="#FFFFFF" fill-rule="evenodd"/><path d="M1318.09 1333.04C1299.19 1333.04 1281.51 1328.23 1265.05 1318.65 1248.57 1309.02 1235.29 1295.09 1225.18 1276.85 1215.12 1258.58 1210.09 1236.62 1210.09 1210.97 1210.09 1184.75 1215.12 1162.54 1225.18 1144.3 1235.29 1126.02 1248.57 1112.1 1265.05 1102.5 1281.51 1092.86 1299.19 1088.04 1318.09 1088.04 1337.31 1088.04 1355.06 1092.86 1371.38 1102.5 1387.68 1112.1 1400.86 1126.02 1410.93 1144.3 1421.03 1162.54 1426.09 1184.75 1426.09 1210.97 1426.09 1236.62 1421.03 1258.58 1410.93 1276.85 1400.86 1295.09 1387.68 1309.02 1371.38 1318.65 1355.06 1328.23 1337.31 1333.04 1318.09 1333.04ZM1318.09 1300.38C1338.27 1300.38 1354.48 1292.15 1366.77 1275.66 1379.1 1259.13 1385.28 1237.58 1385.28 1210.97 1385.28 1184.11 1379.1 1162.38 1366.77 1145.73 1354.48 1129.04 1338.27 1120.7 1318.09 1120.7 1298.24 1120.7 1282.06 1129.04 1269.57 1145.73 1257.13 1162.38 1250.91 1184.11 1250.91 1210.97 1250.91 1237.58 1257.13 1259.13 1269.57 1275.66 1282.06 1292.15 1298.24 1300.38 1318.09 1300.38Z" fill="#FFFFFF" fill-rule="evenodd"/><path d="M1552.75 1333.04C1527.72 1333.04 1510.28 1325.83 1500.46 1311.39 1490.67 1296.96 1485.79 1278.18 1485.79 1255.04L1485.79 1125.7 1451.11 1125.7 1451.11 1095.85 1487.7 1093.46 1492.57 1028.04 1525.81 1028.04 1525.81 1093.46 1588.94 1093.46 1588.94 1125.7 1525.81 1125.7 1525.81 1255.51C1525.81 1269.96 1528.44 1281.12 1533.7 1289.02 1539 1296.88 1548.41 1300.8 1561.92 1300.8 1566.1 1300.8 1570.61 1300.09 1575.39 1298.65 1580.21 1297.18 1584.58 1295.79 1588.46 1294.51L1596.11 1324.36C1589.68 1326.59 1582.68 1328.58 1575.15 1330.33 1567.6 1332.12 1560.12 1333.04 1552.75 1333.04Z" fill="#FFFFFF" fill-rule="evenodd"/><path d="M1730.09 1333.04C1709.25 1333.04 1690.35 1328.15 1673.39 1318.41 1656.41 1308.62 1642.96 1294.61 1633 1276.38 1623.08 1258.1 1618.13 1236.3 1618.13 1210.97 1618.13 1185.39 1623.16 1163.49 1633.23 1145.25 1643.35 1126.98 1656.41 1112.89 1672.44 1102.98 1688.44 1093.02 1705.28 1088.04 1722.93 1088.04 1752.71 1088.04 1775.69 1097.97 1791.87 1117.84 1808.04 1137.7 1816.13 1164.29 1816.13 1197.54 1816.13 1201.74 1816.05 1205.85 1815.89 1209.86 1815.73 1213.83 1815.33 1217.25 1814.7 1220.11L1657.09 1220.11C1658.68 1244.81 1666.43 1264.52 1680.39 1279.24 1694.32 1293.98 1712.51 1301.33 1734.94 1301.33 1746.11 1301.33 1756.43 1299.66 1765.87 1296.32 1775.35 1292.95 1784.42 1288.51 1793.07 1283.05L1806.98 1308.96C1797.06 1315.38 1785.77 1321 1773.11 1325.81 1760.42 1330.61 1746.09 1333.04 1730.09 1333.04ZM1656.61 1191.82 1781.54 1191.82C1781.54 1168.1 1776.47 1150.08 1766.35 1137.78 1756.27 1125.45 1742.12 1119.27 1723.89 1119.27 1707.5 1119.27 1692.81 1125.6 1679.83 1138.26 1666.89 1150.88 1659.16 1168.74 1656.61 1191.82Z" fill="#FFFFFF" fill-rule="evenodd"/><path d="M1964.65 1333.04C1945.66 1333.04 1927.89 1328.23 1911.35 1318.65 1894.8 1309.02 1881.46 1295.09 1871.3 1276.85 1861.19 1258.58 1856.15 1236.62 1856.15 1210.97 1856.15 1184.75 1861.19 1162.54 1871.3 1144.3 1881.46 1126.02 1894.8 1112.1 1911.35 1102.5 1927.89 1092.86 1945.66 1088.04 1964.65 1088.04 1983.95 1088.04 2001.78 1092.86 2018.18 1102.5 2034.55 1112.1 2047.8 1126.02 2057.91 1144.3 2068.06 1162.54 2073.15 1184.75 2073.15 1210.97 2073.15 1236.62 2068.06 1258.58 2057.91 1276.85 2047.8 1295.09 2034.55 1309.02 2018.18 1318.65 2001.78 1328.23 1983.95 1333.04 1964.65 1333.04ZM1964.65 1300.38C1984.91 1300.38 2001.21 1292.15 2013.55 1275.66 2025.94 1259.13 2032.14 1237.58 2032.14 1210.97 2032.14 1184.11 2025.94 1162.38 2013.55 1145.73 2001.21 1129.04 1984.91 1120.7 1964.65 1120.7 1944.7 1120.7 1928.45 1129.04 1915.9 1145.73 1903.4 1162.38 1897.15 1184.11 1897.15 1210.97 1897.15 1237.58 1903.4 1259.13 1915.9 1275.66 1928.45 1292.15 1944.7 1300.38 1964.65 1300.38Z" fill="#FFFFFF" fill-rule="evenodd"/><path d="M2134.17 1327.04 2134.17 1093.83 2166.9 1093.83 2170.25 1127.42 2171.68 1127.42C2181.92 1116.2 2193.15 1106.83 2205.38 1099.31 2217.58 1091.81 2230.59 1088.04 2244.41 1088.04 2262.35 1088.04 2276.37 1091.97 2286.47 1099.79 2296.6 1107.63 2304.09 1118.59 2308.93 1132.66 2321.08 1119.54 2333.42 1108.82 2345.97 1100.5 2358.49 1092.21 2371.82 1088.04 2385.96 1088.04 2410.01 1088.04 2427.87 1095.8 2439.56 1111.3 2451.29 1126.82 2457.17 1149.45 2457.17 1179.19L2457.17 1327.04 2417.74 1327.04 2417.74 1184.51C2417.74 1162.75 2414.19 1146.93 2407.14 1137.03 2400.07 1127.08 2389.16 1122.1 2374.41 1122.1 2357.04 1122.1 2337.45 1134.13 2315.62 1158.15L2315.62 1327.04 2276.19 1327.04 2276.19 1184.51C2276.19 1162.75 2272.65 1146.93 2265.6 1137.03 2258.53 1127.08 2247.46 1122.1 2232.38 1122.1 2215.02 1122.1 2195.42 1134.13 2173.6 1158.15L2173.6 1327.04Z" fill="#FFFFFF" fill-rule="evenodd"/><path d="M2533.5 1327.04 2533.5 1093.2 2573.01 1093.2 2573.01 1327.04ZM2553.7 1045.03C2545.98 1045.03 2539.61 1042.72 2534.62 1038.1 2529.67 1033.44 2527.2 1027.09 2527.2 1019.07 2527.2 1011.39 2529.67 1005.12 2534.62 1000.28 2539.61 995.465 2545.98 993.037 2553.7 993.037 2561.4 993.037 2567.75 995.465 2572.7 1000.28 2577.68 1005.12 2580.2 1011.39 2580.2 1019.07 2580.2 1027.09 2577.68 1033.44 2572.7 1038.1 2567.75 1042.72 2561.4 1045.03 2553.7 1045.03Z" fill="#FFFFFF" fill-rule="evenodd"/><path d="M2743.76 1333.04C2723.25 1333.04 2704.67 1328.23 2688.03 1318.65 2671.37 1309.02 2658.24 1295.09 2648.6 1276.85 2639 1258.58 2634.21 1236.62 2634.21 1210.97 2634.21 1184.75 2639.39 1162.54 2649.79 1144.3 2660.22 1126.02 2674 1112.1 2691.13 1102.5 2708.3 1092.86 2726.79 1088.04 2746.62 1088.04 2761.99 1088.04 2775.18 1090.78 2786.21 1096.22 2797.28 1101.68 2806.84 1108.1 2814.91 1115.45L2794.72 1141.36C2787.98 1135.28 2780.85 1130.31 2773.33 1126.5 2765.8 1122.64 2757.37 1120.7 2748.05 1120.7 2734 1120.7 2721.44 1124.47 2710.37 1131.98 2699.28 1139.51 2690.61 1150.08 2684.37 1163.69 2678.17 1177.32 2675.07 1193.07 2675.07 1210.97 2675.07 1237.58 2681.69 1259.13 2694.95 1275.66 2708.24 1292.15 2725.63 1300.38 2747.1 1300.38 2758.01 1300.38 2768.11 1298.05 2777.39 1293.38 2786.65 1288.73 2794.82 1283.19 2801.88 1276.77L2819.21 1303.24C2808.65 1312.51 2796.97 1319.81 2784.15 1325.09 2771.31 1330.37 2757.85 1333.04 2743.76 1333.04Z" fill="#FFFFFF" fill-rule="evenodd"/><path d="M2931.94 1333.04C2915.33 1333.04 2899.54 1329.9 2884.54 1323.66 2869.52 1317.42 2856.42 1309.81 2845.22 1300.85L2864.88 1274.39C2875.07 1282.4 2885.59 1289.05 2896.43 1294.34 2907.31 1299.64 2919.61 1302.28 2933.36 1302.28 2948.68 1302.28 2960.17 1298.69 2967.84 1291.47 2975.55 1284.28 2979.42 1275.7 2979.42 1265.73 2979.42 1257.74 2976.76 1251.03 2971.49 1245.62 2966.2 1240.18 2959.48 1235.61 2951.36 1231.95 2943.21 1228.26 2934.83 1224.78 2926.23 1221.54 2915.33 1217.41 2904.61 1212.7 2894.05 1207.4 2883.53 1202.11 2874.91 1195.22 2868.21 1186.74 2861.49 1178.27 2858.14 1167.46 2858.14 1154.31 2858.14 1135.46 2865.24 1119.7 2879.46 1107.03 2893.67 1094.37 2913.41 1088.04 2938.67 1088.04 2953.04 1088.04 2966.44 1090.62 2978.86 1095.74 2991.32 1100.83 3002.02 1107.09 3010.96 1114.5L2991.86 1139.45C2983.87 1133.37 2975.55 1128.41 2966.89 1124.59 2958.27 1120.74 2948.86 1118.79 2938.67 1118.79 2923.97 1118.79 2913.19 1122.17 2906.33 1128.88 2899.46 1135.62 2896.03 1143.47 2896.03 1152.41 2896.03 1159.78 2898.41 1165.8 2903.16 1170.44 2907.96 1175.05 2914.2 1179.07 2921.87 1182.44 2929.52 1185.78 2937.68 1189.24 2946.36 1192.78 2957.5 1196.91 2968.5 1201.64 2979.34 1206.92 2990.21 1212.23 2999.25 1219.28 3006.44 1228.06 3013.62 1236.86 3017.22 1248.62 3017.22 1263.34 3017.22 1275.86 3013.93 1287.4 3007.39 1297.99 3000.84 1308.54 2991.25 1317.02 2978.62 1323.42 2966.04 1329.82 2950.48 1333.04 2931.94 1333.04Z" fill="#FFFFFF" fill-rule="evenodd"/><path d="M3076.24 1327.04 3076.24 1012.04 3124.29 1012.04 3184.91 1180.14C3188.73 1191.01 3192.47 1201.97 3196.12 1213.03 3199.82 1224.06 3203.62 1235.02 3207.5 1245.92L3209.41 1245.92C3213.27 1235.02 3216.89 1224.06 3220.23 1213.03 3223.61 1201.97 3227.23 1191.01 3231.05 1180.14L3290.71 1012.04 3339.24 1012.04 3339.24 1327.04 3301.77 1327.04 3301.77 1153.69C3301.77 1139.61 3302.41 1124.01 3303.68 1106.89 3304.95 1089.73 3306.07 1074.3 3307.02 1060.58L3305.11 1060.58 3280.13 1132.08 3220.47 1295.34 3194.06 1295.34 3134.39 1132.08 3109.41 1060.58 3107.5 1060.58C3108.46 1074.3 3109.49 1089.73 3110.61 1106.89 3111.72 1124.01 3112.28 1139.61 3112.28 1153.69L3112.28 1327.04Z" fill="#FFFFFF" fill-rule="evenodd"/><path d="M3426.27 1327.04 3426.27 1012.04 3466 1012.04 3466 1292.95 3603.27 1292.95 3603.27 1327.04Z" fill="#FFFFFF" fill-rule="evenodd"/><path d="M782.477 1513.48C782.477 1513.48 837.803 1513.8 948.477 1514.48" stroke="#47B7D1" stroke-width="20.6041" stroke-miterlimit="8" fill="none" fill-rule="evenodd"/><path d="M1014.18 1547.05C1004.45 1547.05 996.66 1543.49 990.796 1536.31 984.97 1529.15 982.078 1519.05 982.078 1506 982.078 1497.5 983.623 1490.16 986.754 1483.94 989.924 1477.75 994.065 1473 999.197 1469.67 1004.37 1466.36 1009.9 1464.7 1015.76 1464.7 1020.2 1464.7 1024.04 1465.5 1027.33 1467.1 1030.66 1468.71 1034.03 1470.91 1037.48 1473.68L1036.84 1460.29 1036.84 1430.05 1050.08 1430.05 1050.08 1545.13 1039.22 1545.13 1038.11 1535.91 1037.64 1535.91C1034.66 1538.95 1031.16 1541.58 1027.09 1543.77 1023.01 1545.95 1018.71 1547.05 1014.18 1547.05ZM1017.03 1535.91C1023.84 1535.91 1030.44 1532.3 1036.84 1525.08L1036.84 1484.02C1033.51 1481.04 1030.34 1478.93 1027.33 1477.69 1024.32 1476.46 1021.19 1475.84 1017.98 1475.84 1013.8 1475.84 1010.05 1477.11 1006.73 1479.61 1003.4 1482.14 1000.7 1485.63 998.642 1490.12 996.621 1494.61 995.63 1499.86 995.63 1505.84 995.63 1515.26 997.473 1522.64 1001.18 1527.97 1004.92 1533.26 1010.21 1535.91 1017.03 1535.91Z" fill="#FFFFFF" fill-rule="evenodd"/><path d="M1093.83 1547.05C1087.31 1547.05 1081.86 1545.12 1077.53 1541.23 1073.23 1537.29 1071.08 1531.84 1071.08 1524.86 1071.08 1516.29 1074.9 1509.75 1082.54 1505.22 1090.17 1500.64 1102.26 1497.43 1118.8 1495.55 1118.8 1492.26 1118.35 1489.13 1117.45 1486.13 1116.54 1483.1 1114.93 1480.66 1112.6 1478.79 1110.31 1476.93 1107.05 1475.99 1102.82 1475.99 1098.3 1475.99 1094.07 1476.85 1090.09 1478.55 1086.16 1480.26 1082.66 1482.18 1079.59 1484.3L1074.43 1475.11C1078.08 1472.78 1082.54 1470.52 1087.79 1468.33 1093.08 1466.15 1098.84 1465.05 1105.04 1465.05 1114.53 1465.05 1121.39 1467.99 1125.64 1473.84 1129.94 1479.65 1132.08 1487.45 1132.08 1497.23L1132.08 1545.14 1121.19 1545.14 1120.08 1535.8 1119.6 1535.8C1115.98 1538.83 1112 1541.46 1107.67 1543.7 1103.37 1545.94 1098.76 1547.05 1093.83 1547.05ZM1097.65 1536.43C1101.41 1536.43 1104.93 1535.54 1108.23 1533.72 1111.57 1531.92 1115.09 1529.33 1118.8 1525.97L1118.8 1504.26C1105.86 1505.85 1096.79 1508.29 1091.6 1511.52 1086.45 1514.72 1083.89 1518.85 1083.89 1523.9 1083.89 1528.33 1085.2 1531.52 1087.87 1533.48 1090.57 1535.46 1093.83 1536.43 1097.65 1536.43Z" fill="#FFFFFF" fill-rule="evenodd"/><path d="M1179.48 1547.05C1170.96 1547.05 1165.05 1544.66 1161.72 1539.87 1158.43 1535.03 1156.8 1528.74 1156.8 1521.01L1156.8 1477.72 1145.09 1477.72 1145.09 1467.74 1157.44 1466.94 1159.14 1445.05 1170.36 1445.05 1170.36 1466.94 1191.67 1466.94 1191.67 1477.72 1170.36 1477.72 1170.36 1521.17C1170.36 1525.97 1171.25 1529.7 1173.02 1532.36 1174.8 1534.97 1177.97 1536.27 1182.55 1536.27 1183.94 1536.27 1185.45 1536.03 1187.07 1535.55 1188.68 1535.07 1190.16 1534.63 1191.51 1534.19L1194.09 1544.18C1191.93 1544.94 1189.57 1545.58 1186.99 1546.18 1184.45 1546.75 1181.94 1547.05 1179.48 1547.05Z" fill="#FFFFFF" fill-rule="evenodd"/><path d="M1223.84 1547.05C1217.32 1547.05 1211.87 1545.12 1207.54 1541.23 1203.24 1537.29 1201.1 1531.84 1201.1 1524.86 1201.1 1516.29 1204.91 1509.75 1212.55 1505.22 1220.18 1500.64 1232.27 1497.43 1248.81 1495.55 1248.81 1492.26 1248.36 1489.13 1247.46 1486.13 1246.55 1483.1 1244.94 1480.66 1242.61 1478.79 1240.32 1476.93 1237.06 1475.99 1232.83 1475.99 1228.31 1475.99 1224.08 1476.85 1220.1 1478.55 1216.17 1480.26 1212.67 1482.18 1209.6 1484.3L1204.44 1475.11C1208.09 1472.78 1212.55 1470.52 1217.8 1468.33 1223.09 1466.15 1228.85 1465.05 1235.05 1465.05 1244.54 1465.05 1251.4 1467.99 1255.65 1473.84 1259.95 1479.65 1262.09 1487.45 1262.09 1497.23L1262.09 1545.14 1251.2 1545.14 1250.09 1535.8 1249.61 1535.8C1245.99 1538.83 1242.01 1541.46 1237.68 1543.7 1233.38 1545.94 1228.77 1547.05 1223.84 1547.05ZM1227.66 1536.43C1231.42 1536.43 1234.94 1535.54 1238.24 1533.72 1241.58 1531.92 1245.1 1529.33 1248.81 1525.97L1248.81 1504.26C1235.87 1505.85 1226.8 1508.29 1221.61 1511.52 1216.46 1514.72 1213.9 1518.85 1213.9 1523.9 1213.9 1528.33 1215.21 1531.52 1217.88 1533.48 1220.58 1535.46 1223.84 1536.43 1227.66 1536.43Z" fill="#FFFFFF" fill-rule="evenodd"/><path d="M1306.84 1547.05C1301.33 1547.05 1296.07 1546.02 1291.09 1543.94 1286.15 1541.86 1281.82 1539.31 1278.1 1536.27L1284.63 1527.41C1288.04 1530.13 1291.52 1532.36 1295.11 1534.12 1298.73 1535.88 1302.78 1536.75 1307.31 1536.75 1312.39 1536.75 1316.21 1535.56 1318.72 1533.16 1321.28 1530.77 1322.58 1527.89 1322.58 1524.54 1322.58 1521.88 1321.68 1519.65 1319.91 1517.83 1318.17 1515.97 1315.93 1514.44 1313.21 1513.2 1310.54 1511.98 1307.78 1510.84 1304.95 1509.77 1301.33 1508.39 1297.74 1506.81 1294.24 1505.06 1290.78 1503.26 1287.94 1500.94 1285.74 1498.11 1283.53 1495.23 1282.43 1491.62 1282.43 1487.25 1282.43 1480.92 1284.75 1475.65 1289.44 1471.44 1294.16 1467.19 1300.7 1465.05 1309.04 1465.05 1313.8 1465.05 1318.25 1465.91 1322.35 1467.61 1326.48 1469.33 1330.06 1471.4 1333.05 1473.84L1326.68 1482.22C1324.04 1480.2 1321.28 1478.55 1318.41 1477.27 1315.58 1475.95 1312.45 1475.27 1309.04 1475.27 1304.2 1475.27 1300.64 1476.43 1298.33 1478.71 1296.07 1480.94 1294.95 1483.58 1294.95 1486.61 1294.95 1489.07 1295.74 1491.06 1297.31 1492.6 1298.88 1494.16 1300.93 1495.51 1303.45 1496.67 1306.01 1497.79 1308.75 1498.95 1311.64 1500.11 1315.3 1501.5 1318.92 1503.06 1322.5 1504.82 1326.13 1506.57 1329.12 1508.95 1331.48 1511.92 1333.88 1514.86 1335.1 1518.79 1335.1 1523.74 1335.1 1527.95 1334 1531.84 1331.79 1535.4 1329.63 1538.91 1326.46 1541.74 1322.27 1543.86 1318.11 1545.98 1312.98 1547.05 1306.84 1547.05Z" fill="#FFFFFF" fill-rule="evenodd"/><path d="M1385.4 1547.05C1378.44 1547.05 1372.14 1545.42 1366.47 1542.18 1360.85 1538.89 1356.38 1534.2 1353.04 1528.13 1349.74 1522.02 1348.11 1514.7 1348.11 1506.17 1348.11 1497.61 1349.78 1490.26 1353.12 1484.14 1356.5 1478.03 1360.85 1473.32 1366.16 1470 1371.5 1466.71 1377.13 1465.05 1383.01 1465.05 1392.92 1465.05 1400.59 1468.39 1406 1475.03 1411.4 1481.64 1414.11 1490.52 1414.11 1501.7 1414.11 1503.1 1414.07 1504.48 1414.03 1505.85 1413.97 1507.19 1413.83 1508.33 1413.63 1509.29L1361.07 1509.29C1361.58 1517.55 1364.17 1524.14 1368.78 1529.09 1373.43 1534 1379.52 1536.43 1386.99 1536.43 1390.75 1536.43 1394.19 1535.88 1397.33 1534.76 1400.51 1533.64 1403.53 1532.18 1406.39 1530.37L1411.08 1538.99C1407.75 1541.19 1403.95 1543.06 1399.71 1544.66 1395.52 1546.26 1390.75 1547.05 1385.4 1547.05ZM1360.91 1499.79 1402.58 1499.79C1402.58 1491.86 1400.87 1485.85 1397.49 1481.74 1394.15 1477.59 1389.42 1475.51 1383.33 1475.51 1377.87 1475.51 1372.96 1477.65 1368.62 1481.9 1364.33 1486.11 1361.74 1492.08 1360.91 1499.79Z" fill="#FFFFFF" fill-rule="evenodd"/><path d="M1455.8 1547.05C1447.46 1547.05 1441.66 1544.66 1438.4 1539.87 1435.18 1535.03 1433.58 1528.74 1433.58 1521.01L1433.58 1477.72 1422.11 1477.72 1422.11 1467.74 1434.21 1466.94 1435.87 1445.05 1446.86 1445.05 1446.86 1466.94 1467.74 1466.94 1467.74 1477.72 1446.86 1477.72 1446.86 1521.17C1446.86 1525.97 1447.73 1529.7 1449.47 1532.36 1451.21 1534.97 1454.32 1536.27 1458.8 1536.27 1460.17 1536.27 1461.65 1536.03 1463.23 1535.55 1464.81 1535.07 1466.26 1534.63 1467.58 1534.19L1470.11 1544.18C1468 1544.94 1465.68 1545.58 1463.15 1546.18 1460.66 1546.75 1458.21 1547.05 1455.8 1547.05Z" fill="#FFFFFF" fill-rule="evenodd"/><path d="M1504.36 1547.05C1498.75 1547.05 1493.4 1546.02 1488.34 1543.94 1483.31 1541.86 1478.9 1539.31 1475.12 1536.27L1481.77 1527.41C1485.23 1530.13 1488.78 1532.36 1492.42 1534.12 1496.11 1535.88 1500.23 1536.75 1504.84 1536.75 1510.01 1536.75 1513.89 1535.56 1516.45 1533.16 1519.06 1530.77 1520.38 1527.89 1520.38 1524.54 1520.38 1521.88 1519.46 1519.65 1517.66 1517.83 1515.89 1515.97 1513.61 1514.44 1510.85 1513.2 1508.12 1511.98 1505.32 1510.84 1502.44 1509.77 1498.75 1508.39 1495.11 1506.81 1491.54 1505.06 1488.02 1503.26 1485.13 1500.94 1482.89 1498.11 1480.65 1495.23 1479.52 1491.62 1479.52 1487.25 1479.52 1480.92 1481.89 1475.65 1486.65 1471.44 1491.46 1467.19 1498.11 1465.05 1506.6 1465.05 1511.45 1465.05 1515.97 1465.91 1520.14 1467.61 1524.35 1469.33 1527.99 1471.4 1531.04 1473.84L1524.55 1482.22C1521.86 1480.2 1519.06 1478.55 1516.13 1477.27 1513.25 1475.95 1510.07 1475.27 1506.6 1475.27 1501.67 1475.27 1498.05 1476.43 1495.71 1478.71 1493.4 1480.94 1492.26 1483.58 1492.26 1486.61 1492.26 1489.07 1493.06 1491.06 1494.66 1492.6 1496.27 1494.16 1498.35 1495.51 1500.91 1496.67 1503.52 1497.79 1506.3 1498.95 1509.24 1500.11 1512.97 1501.5 1516.66 1503.06 1520.3 1504.82 1523.99 1506.57 1527.03 1508.95 1529.43 1511.92 1531.88 1514.86 1533.12 1518.79 1533.12 1523.74 1533.12 1527.95 1532 1531.84 1529.75 1535.4 1527.55 1538.91 1524.33 1541.74 1520.06 1543.86 1515.83 1545.98 1510.61 1547.05 1504.36 1547.05Z" fill="#FFFFFF" fill-rule="evenodd"/><path d="M1549.28 1572.05 1546.12 1564.27C1550.64 1562.22 1554.17 1559.49 1556.7 1556.08 1559.27 1552.71 1560.51 1548.85 1560.41 1544.52 1560.19 1544.62 1559.94 1544.68 1559.62 1544.68 1559.31 1544.68 1559.03 1544.68 1558.83 1544.68 1556.31 1544.68 1554.09 1543.92 1552.2 1542.35 1550.35 1540.81 1549.44 1538.5 1549.44 1535.45 1549.44 1532.56 1550.38 1530.29 1552.28 1528.62 1554.21 1526.92 1556.5 1526.05 1559.15 1526.05 1562.5 1526.05 1565.17 1527.48 1567.12 1530.31 1569.11 1533.1 1570.12 1536.93 1570.12 1541.79 1570.12 1548.69 1568.25 1554.73 1564.52 1559.93 1560.83 1565.17 1555.75 1569.2 1549.28 1572.05Z" fill="#FFFFFF" fill-rule="evenodd"/><path d="M1647.81 1547.05C1639.47 1547.05 1633.68 1544.66 1630.42 1539.87 1627.19 1535.03 1625.59 1528.74 1625.59 1521.01L1625.59 1477.72 1614.13 1477.72 1614.13 1467.74 1626.23 1466.94 1627.89 1445.05 1638.88 1445.05 1638.88 1466.94 1659.76 1466.94 1659.76 1477.72 1638.88 1477.72 1638.88 1521.17C1638.88 1525.97 1639.75 1529.7 1641.49 1532.36 1643.23 1534.97 1646.33 1536.27 1650.82 1536.27 1652.18 1536.27 1653.67 1536.03 1655.25 1535.55 1656.83 1535.07 1658.27 1534.63 1659.6 1534.19L1662.13 1544.18C1660.01 1544.94 1657.7 1545.58 1655.17 1546.18 1652.68 1546.75 1650.23 1547.05 1647.81 1547.05Z" fill="#FFFFFF" fill-rule="evenodd"/><path d="M1699.98 1547.05C1691.75 1547.05 1685.71 1544.48 1681.86 1539.32 1678.04 1534.11 1676.13 1526.52 1676.13 1516.51L1676.13 1467.05 1689.41 1467.05 1689.41 1514.75C1689.41 1522.05 1690.54 1527.35 1692.82 1530.7 1695.15 1534.01 1698.89 1535.65 1704.03 1535.65 1708.05 1535.65 1711.62 1534.61 1714.76 1532.54 1717.94 1530.46 1721.36 1527.11 1725.02 1522.49L1725.02 1467.05 1738.13 1467.05 1738.13 1545.14 1727.24 1545.14 1726.13 1532.94 1725.65 1532.94C1722 1537.2 1718.12 1540.63 1714.05 1543.23 1710.01 1545.78 1705.32 1547.05 1699.98 1547.05Z" fill="#FFFFFF" fill-rule="evenodd"/><path d="M1788.83 1547.05C1780.48 1547.05 1774.69 1544.66 1771.43 1539.87 1768.21 1535.03 1766.6 1528.74 1766.6 1521.01L1766.6 1477.72 1755.14 1477.72 1755.14 1467.74 1767.24 1466.94 1768.9 1445.05 1779.89 1445.05 1779.89 1466.94 1800.77 1466.94 1800.77 1477.72 1779.89 1477.72 1779.89 1521.17C1779.89 1525.97 1780.76 1529.7 1782.5 1532.36 1784.24 1534.97 1787.34 1536.27 1791.83 1536.27 1793.19 1536.27 1794.68 1536.03 1796.26 1535.55 1797.84 1535.07 1799.28 1534.63 1800.61 1534.19L1803.14 1544.18C1801.02 1544.94 1798.71 1545.58 1796.18 1546.18 1793.69 1546.75 1791.24 1547.05 1788.83 1547.05Z" fill="#FFFFFF" fill-rule="evenodd"/><path d="M1847.14 1547.05C1840.83 1547.05 1834.92 1545.46 1829.42 1542.26 1823.96 1539.03 1819.53 1534.36 1816.15 1528.29 1812.81 1522.18 1811.14 1514.8 1811.14 1506.17 1811.14 1497.39 1812.81 1489.95 1816.15 1483.82 1819.53 1477.71 1823.96 1473.04 1829.42 1469.84 1834.92 1466.65 1840.83 1465.05 1847.14 1465.05 1853.54 1465.05 1859.46 1466.65 1864.86 1469.84 1870.31 1473.04 1874.72 1477.71 1878.06 1483.82 1881.43 1489.95 1883.14 1497.39 1883.14 1506.17 1883.14 1514.8 1881.43 1522.18 1878.06 1528.29 1874.72 1534.36 1870.31 1539.03 1864.86 1542.26 1859.46 1545.46 1853.54 1547.05 1847.14 1547.05ZM1847.14 1536.12C1853.86 1536.12 1859.26 1533.38 1863.35 1527.89 1867.49 1522.36 1869.55 1515.12 1869.55 1506.17 1869.55 1497.19 1867.49 1489.93 1863.35 1484.38 1859.26 1478.79 1853.86 1475.99 1847.14 1475.99 1840.51 1475.99 1835.1 1478.79 1830.93 1484.38 1826.8 1489.93 1824.73 1497.19 1824.73 1506.17 1824.73 1515.12 1826.8 1522.36 1830.93 1527.89 1835.1 1533.38 1840.51 1536.12 1847.14 1536.12Z" fill="#FFFFFF" fill-rule="evenodd"/><path d="M1903.15 1545.05 1903.15 1466.97 1914.06 1466.97 1915.17 1481.09 1915.65 1481.09C1918.36 1476.14 1921.62 1472.23 1925.45 1469.36 1929.31 1466.49 1933.43 1465.05 1937.79 1465.05 1940.91 1465.05 1943.7 1465.59 1946.15 1466.65L1943.6 1478.21C1942.33 1477.8 1941.15 1477.48 1940.1 1477.26 1939.02 1477.06 1937.67 1476.94 1936.04 1476.94 1932.73 1476.94 1929.29 1478.27 1925.69 1480.93 1922.12 1483.6 1919 1488.24 1916.29 1494.88L1916.29 1545.05Z" fill="#FFFFFF" fill-rule="evenodd"/><path d="M1959.14 1545.05 1959.14 1466.62 1971.78 1466.62 1971.78 1545.05ZM1965.65 1450.44C1963.2 1450.44 1961.15 1449.68 1959.52 1448.12 1957.93 1446.57 1957.15 1444.43 1957.15 1441.71 1957.15 1439.14 1957.93 1437.06 1959.52 1435.46 1961.15 1433.86 1963.2 1433.05 1965.65 1433.05 1968.1 1433.05 1970.11 1433.86 1971.7 1435.46 1973.33 1437.06 1974.15 1439.14 1974.15 1441.71 1974.15 1444.43 1973.33 1446.57 1971.7 1448.12 1970.11 1449.68 1968.1 1450.44 1965.65 1450.44Z" fill="#FFFFFF" fill-rule="evenodd"/><path d="M2016.9 1547.05C2010.38 1547.05 2004.93 1545.12 2000.6 1541.23 1996.31 1537.29 1994.16 1531.84 1994.16 1524.86 1994.16 1516.29 1997.97 1509.75 2005.61 1505.22 2013.24 1500.64 2025.33 1497.43 2041.88 1495.55 2041.88 1492.26 2041.42 1489.13 2040.52 1486.13 2039.61 1483.1 2038 1480.66 2035.67 1478.79 2033.39 1476.93 2030.13 1475.99 2025.89 1475.99 2021.38 1475.99 2017.14 1476.85 2013.17 1478.55 2009.23 1480.26 2005.73 1482.18 2002.67 1484.3L1997.5 1475.11C2001.16 1472.78 2005.61 1470.52 2010.86 1468.33 2016.15 1466.15 2021.91 1465.05 2028.12 1465.05 2037.6 1465.05 2044.46 1467.99 2048.72 1473.84 2053.01 1479.65 2055.16 1487.45 2055.16 1497.23L2055.16 1545.14 2044.26 1545.14 2043.15 1535.8 2042.67 1535.8C2039.05 1538.83 2035.08 1541.46 2030.74 1543.7 2026.45 1545.94 2021.83 1547.05 2016.9 1547.05ZM2020.72 1536.43C2024.48 1536.43 2028 1535.54 2031.3 1533.72 2034.64 1531.92 2038.16 1529.33 2041.88 1525.97L2041.88 1504.26C2028.93 1505.85 2019.87 1508.29 2014.68 1511.52 2009.53 1514.72 2006.96 1518.85 2006.96 1523.9 2006.96 1528.33 2008.27 1531.52 2010.94 1533.48 2013.64 1535.46 2016.9 1536.43 2020.72 1536.43Z" fill="#FFFFFF" fill-rule="evenodd"/><path d="M2093.51 1547.05C2088.46 1547.05 2084.79 1545.53 2082.51 1542.48 2080.27 1539.4 2079.17 1535 2079.17 1529.33L2079.17 1430.05 2092.61 1430.05 2092.61 1530.29C2092.61 1532.34 2092.98 1533.8 2093.75 1534.7 2094.57 1535.63 2095.46 1536.07 2096.44 1536.07 2096.87 1536.07 2097.28 1536.05 2097.66 1535.99 2098.03 1535.95 2098.6 1535.87 2099.38 1535.75L2101.17 1545.77C2100.29 1546.19 2099.25 1546.51 2098.07 1546.73 2096.87 1546.93 2095.34 1547.05 2093.51 1547.05Z" fill="#FFFFFF" fill-rule="evenodd"/><path d="M2140.41 1547.05C2134.8 1547.05 2129.45 1546.02 2124.39 1543.94 2119.36 1541.86 2114.95 1539.31 2111.17 1536.27L2117.82 1527.41C2121.28 1530.13 2124.83 1532.36 2128.47 1534.12 2132.16 1535.88 2136.28 1536.75 2140.89 1536.75 2146.06 1536.75 2149.94 1535.56 2152.51 1533.16 2155.11 1530.77 2156.43 1527.89 2156.43 1524.54 2156.43 1521.88 2155.51 1519.65 2153.71 1517.83 2151.94 1515.97 2149.66 1514.44 2146.9 1513.2 2144.17 1511.98 2141.37 1510.84 2138.49 1509.77 2134.8 1508.39 2131.16 1506.81 2127.59 1505.06 2124.07 1503.26 2121.18 1500.94 2118.94 1498.11 2116.7 1495.23 2115.57 1491.62 2115.57 1487.25 2115.57 1480.92 2117.94 1475.65 2122.7 1471.44 2127.51 1467.19 2134.16 1465.05 2142.65 1465.05 2147.5 1465.05 2152.02 1465.91 2156.19 1467.61 2160.4 1469.33 2164.04 1471.4 2167.09 1473.84L2160.6 1482.22C2157.91 1480.2 2155.11 1478.55 2152.18 1477.27 2149.3 1475.95 2146.12 1475.27 2142.65 1475.27 2137.72 1475.27 2134.1 1476.43 2131.76 1478.71 2129.45 1480.94 2128.31 1483.58 2128.31 1486.61 2128.31 1489.07 2129.11 1491.06 2130.72 1492.6 2132.32 1494.16 2134.4 1495.51 2136.96 1496.67 2139.57 1497.79 2142.35 1498.95 2145.3 1500.11 2149.02 1501.5 2152.71 1503.06 2156.35 1504.82 2160.04 1506.57 2163.08 1508.95 2165.48 1511.92 2167.93 1514.86 2169.17 1518.79 2169.17 1523.74 2169.17 1527.95 2168.05 1531.84 2165.8 1535.4 2163.6 1538.91 2160.38 1541.74 2156.11 1543.86 2151.88 1545.98 2146.66 1547.05 2140.41 1547.05Z" fill="#FFFFFF" fill-rule="evenodd"/><path d="M2185.33 1572.05 2182.17 1564.27C2186.69 1562.22 2190.22 1559.49 2192.75 1556.08 2195.32 1552.71 2196.56 1548.85 2196.46 1544.52 2196.24 1544.62 2195.99 1544.68 2195.67 1544.68 2195.36 1544.68 2195.08 1544.68 2194.88 1544.68 2192.36 1544.68 2190.14 1543.92 2188.25 1542.35 2186.39 1540.81 2185.49 1538.5 2185.49 1535.45 2185.49 1532.56 2186.43 1530.29 2188.33 1528.62 2190.26 1526.92 2192.55 1526.05 2195.2 1526.05 2198.55 1526.05 2201.22 1527.48 2203.17 1530.31 2205.16 1533.1 2206.17 1536.93 2206.17 1541.79 2206.17 1548.69 2204.3 1554.73 2200.57 1559.93 2196.88 1565.17 2191.8 1569.2 2185.33 1572.05Z" fill="#FFFFFF" fill-rule="evenodd"/><path d="M2276.92 1547.05C2270.4 1547.05 2264.95 1545.12 2260.62 1541.23 2256.33 1537.29 2254.18 1531.84 2254.18 1524.86 2254.18 1516.29 2258 1509.75 2265.63 1505.22 2273.27 1500.64 2285.35 1497.43 2301.9 1495.55 2301.9 1492.26 2301.44 1489.13 2300.54 1486.13 2299.63 1483.1 2298.02 1480.66 2295.69 1478.79 2293.41 1476.93 2290.15 1475.99 2285.91 1475.99 2281.4 1475.99 2277.16 1476.85 2273.19 1478.55 2269.25 1480.26 2265.75 1482.18 2262.69 1484.3L2257.52 1475.11C2261.18 1472.78 2265.63 1470.52 2270.88 1468.33 2276.17 1466.15 2281.93 1465.05 2288.14 1465.05 2297.62 1465.05 2304.48 1467.99 2308.74 1473.84 2313.03 1479.65 2315.18 1487.45 2315.18 1497.23L2315.18 1545.14 2304.28 1545.14 2303.17 1535.8 2302.69 1535.8C2299.07 1538.83 2295.1 1541.46 2290.76 1543.7 2286.47 1545.94 2281.85 1547.05 2276.92 1547.05ZM2280.74 1536.43C2284.5 1536.43 2288.02 1535.54 2291.32 1533.72 2294.66 1531.92 2298.18 1529.33 2301.9 1525.97L2301.9 1504.26C2288.95 1505.85 2279.89 1508.29 2274.7 1511.52 2269.55 1514.72 2266.98 1518.85 2266.98 1523.9 2266.98 1528.33 2268.29 1531.52 2270.96 1533.48 2273.66 1535.46 2276.92 1536.43 2280.74 1536.43Z" fill="#FFFFFF" fill-rule="evenodd"/><path d="M2340.18 1545.05 2340.18 1466.97 2351.02 1466.97 2352.12 1478.21 2352.6 1478.21C2356.34 1474.45 2360.27 1471.32 2364.38 1468.8 2368.53 1466.31 2373.28 1465.05 2378.62 1465.05 2386.78 1465.05 2392.73 1467.67 2396.49 1472.87 2400.29 1478.03 2402.18 1485.59 2402.18 1495.52L2402.18 1545.05 2389.14 1545.05 2389.14 1497.36C2389.14 1490.08 2387.95 1484.79 2385.58 1481.48 2383.24 1478.13 2379.53 1476.46 2374.43 1476.46 2370.51 1476.46 2366.99 1477.48 2363.83 1479.49 2360.71 1481.52 2357.19 1484.52 2353.23 1488.5L2353.23 1545.05Z" fill="#FFFFFF" fill-rule="evenodd"/><path d="M2454.29 1547.05C2444.56 1547.05 2436.77 1543.49 2430.91 1536.31 2425.08 1529.15 2422.19 1519.05 2422.19 1506 2422.19 1497.5 2423.74 1490.16 2426.87 1483.94 2430.04 1477.75 2434.18 1473 2439.31 1469.67 2444.48 1466.36 2450.01 1464.7 2455.87 1464.7 2460.31 1464.7 2464.16 1465.5 2467.44 1467.1 2470.77 1468.71 2474.14 1470.91 2477.59 1473.68L2476.96 1460.29 2476.96 1430.05 2490.19 1430.05 2490.19 1545.13 2479.33 1545.13 2478.22 1535.91 2477.75 1535.91C2474.78 1538.95 2471.27 1541.58 2467.21 1543.77 2463.13 1545.95 2458.83 1547.05 2454.29 1547.05ZM2457.14 1535.91C2463.96 1535.91 2470.56 1532.3 2476.96 1525.08L2476.96 1484.02C2473.63 1481.04 2470.46 1478.93 2467.44 1477.69 2464.43 1476.46 2461.3 1475.84 2458.09 1475.84 2453.91 1475.84 2450.17 1477.11 2446.84 1479.61 2443.51 1482.14 2440.82 1485.63 2438.75 1490.12 2436.73 1494.61 2435.74 1499.86 2435.74 1505.84 2435.74 1515.26 2437.59 1522.64 2441.29 1527.97 2445.04 1533.26 2450.33 1535.91 2457.14 1535.91Z" fill="#FFFFFF" fill-rule="evenodd"/><path d="M2579.2 1547.05C2572.88 1547.05 2566.98 1545.46 2561.48 1542.26 2556.02 1539.03 2551.58 1534.36 2548.21 1528.29 2544.87 1522.18 2543.2 1514.8 2543.2 1506.17 2543.2 1497.39 2544.87 1489.95 2548.21 1483.82 2551.58 1477.71 2556.02 1473.04 2561.48 1469.84 2566.98 1466.65 2572.88 1465.05 2579.2 1465.05 2585.6 1465.05 2591.52 1466.65 2596.92 1469.84 2602.37 1473.04 2606.78 1477.71 2610.11 1483.82 2613.49 1489.95 2615.2 1497.39 2615.2 1506.17 2615.2 1514.8 2613.49 1522.18 2610.11 1528.29 2606.78 1534.36 2602.37 1539.03 2596.92 1542.26 2591.52 1545.46 2585.6 1547.05 2579.2 1547.05ZM2579.2 1536.12C2585.92 1536.12 2591.32 1533.38 2595.41 1527.89 2599.54 1522.36 2601.61 1515.12 2601.61 1506.17 2601.61 1497.19 2599.54 1489.93 2595.41 1484.38 2591.32 1478.79 2585.92 1475.99 2579.2 1475.99 2572.56 1475.99 2567.16 1478.79 2562.99 1484.38 2558.86 1489.93 2556.79 1497.19 2556.79 1506.17 2556.79 1515.12 2558.86 1522.36 2562.99 1527.89 2567.16 1533.38 2572.56 1536.12 2579.2 1536.12Z" fill="#FFFFFF" fill-rule="evenodd"/><path d="M2636.21 1578.05 2636.21 1466.97 2647.08 1466.97 2648.19 1475.99 2648.66 1475.99C2652.2 1472.95 2656.06 1470.38 2660.25 1468.25 2664.47 1466.13 2668.9 1465.05 2673.5 1465.05 2683.5 1465.05 2691.11 1468.68 2696.35 1475.91 2701.59 1483.15 2704.21 1492.81 2704.21 1504.88 2704.21 1513.65 2702.62 1521.21 2699.45 1527.54 2696.31 1533.88 2692.23 1538.71 2687.15 1542.06 2682.07 1545.35 2676.53 1547.01 2670.56 1547.01 2666.95 1547.01 2663.36 1546.21 2659.77 1544.62 2656.22 1543.02 2652.63 1540.83 2648.98 1537.99L2649.3 1551.72 2649.3 1578.05ZM2668.34 1535.92C2674.73 1535.92 2680.03 1533.18 2684.21 1527.7 2688.44 1522.17 2690.56 1514.57 2690.56 1504.88 2690.56 1496.32 2688.97 1489.39 2685.8 1484.13 2682.66 1478.82 2677.43 1476.15 2670.09 1476.15 2666.79 1476.15 2663.46 1477.06 2660.09 1478.86 2656.76 1480.68 2653.15 1483.31 2649.3 1486.76L2649.3 1527.7C2652.83 1530.73 2656.24 1532.87 2659.53 1534.08 2662.87 1535.32 2665.8 1535.92 2668.34 1535.92Z" fill="#FFFFFF" fill-rule="evenodd"/><path d="M2756.51 1547.05C2749.55 1547.05 2743.25 1545.42 2737.58 1542.18 2731.96 1538.89 2727.48 1534.2 2724.14 1528.13 2720.84 1522.02 2719.21 1514.7 2719.21 1506.17 2719.21 1497.61 2720.88 1490.26 2724.22 1484.14 2727.6 1478.03 2731.96 1473.32 2737.27 1470 2742.61 1466.71 2748.24 1465.05 2754.12 1465.05 2764.02 1465.05 2771.7 1468.39 2777.1 1475.03 2782.51 1481.64 2785.21 1490.52 2785.21 1501.7 2785.21 1503.1 2785.17 1504.48 2785.14 1505.85 2785.08 1507.19 2784.94 1508.33 2784.74 1509.29L2732.18 1509.29C2732.69 1517.55 2735.28 1524.14 2739.89 1529.09 2744.54 1534 2750.62 1536.43 2758.1 1536.43 2761.86 1536.43 2765.3 1535.88 2768.44 1534.76 2771.62 1533.64 2774.64 1532.18 2777.5 1530.37L2782.19 1538.99C2778.85 1541.19 2775.06 1543.06 2770.82 1544.66 2766.63 1546.26 2761.86 1547.05 2756.51 1547.05ZM2732.02 1499.79 2773.68 1499.79C2773.68 1491.86 2771.97 1485.85 2768.6 1481.74 2765.26 1477.59 2760.52 1475.51 2754.44 1475.51 2748.97 1475.51 2744.06 1477.65 2739.73 1481.9 2735.44 1486.11 2732.85 1492.08 2732.02 1499.79Z" fill="#FFFFFF" fill-rule="evenodd"/><path d="M2804.22 1545.05 2804.22 1466.97 2815.05 1466.97 2816.16 1478.21 2816.64 1478.21C2820.37 1474.45 2824.31 1471.32 2828.42 1468.8 2832.57 1466.31 2837.32 1465.05 2842.65 1465.05 2850.82 1465.05 2856.77 1467.67 2860.53 1472.87 2864.32 1478.03 2866.22 1485.59 2866.22 1495.52L2866.22 1545.05 2853.17 1545.05 2853.17 1497.36C2853.17 1490.08 2851.98 1484.79 2849.61 1481.48 2847.28 1478.13 2843.56 1476.46 2838.46 1476.46 2834.55 1476.46 2831.03 1477.48 2827.86 1479.49 2824.74 1481.52 2821.22 1484.52 2817.27 1488.5L2817.27 1545.05Z" fill="#FFFFFF" fill-rule="evenodd"/><path d="M2944.47 1547.05C2938.86 1547.05 2933.52 1546.02 2928.45 1543.94 2923.42 1541.86 2919.02 1539.31 2915.23 1536.27L2921.88 1527.41C2925.35 1530.13 2928.89 1532.36 2932.54 1534.12 2936.22 1535.88 2940.35 1536.75 2944.95 1536.75 2950.12 1536.75 2954.01 1535.56 2956.57 1533.16 2959.17 1530.77 2960.49 1527.89 2960.49 1524.54 2960.49 1521.88 2959.57 1519.65 2957.77 1517.83 2956.01 1515.97 2953.73 1514.44 2950.96 1513.2 2948.24 1511.98 2945.43 1510.84 2942.55 1509.77 2938.86 1508.39 2935.22 1506.81 2931.65 1505.06 2928.13 1503.26 2925.25 1500.94 2923 1498.11 2920.76 1495.23 2919.64 1491.62 2919.64 1487.25 2919.64 1480.92 2922 1475.65 2926.77 1471.44 2931.57 1467.19 2938.22 1465.05 2946.72 1465.05 2951.56 1465.05 2956.09 1465.91 2960.25 1467.61 2964.46 1469.33 2968.1 1471.4 2971.15 1473.84L2964.66 1482.22C2961.98 1480.2 2959.17 1478.55 2956.25 1477.27 2953.36 1475.95 2950.18 1475.27 2946.72 1475.27 2941.79 1475.27 2938.16 1476.43 2935.82 1478.71 2933.52 1480.94 2932.38 1483.58 2932.38 1486.61 2932.38 1489.07 2933.18 1491.06 2934.78 1492.6 2936.38 1494.16 2938.46 1495.51 2941.03 1496.67 2943.63 1497.79 2946.42 1498.95 2949.36 1500.11 2953.08 1501.5 2956.77 1503.06 2960.41 1504.82 2964.1 1506.57 2967.14 1508.95 2969.55 1511.92 2971.99 1514.86 2973.23 1518.79 2973.23 1523.74 2973.23 1527.95 2972.11 1531.84 2969.87 1535.4 2967.66 1538.91 2964.44 1541.74 2960.17 1543.86 2955.95 1545.98 2950.72 1547.05 2944.47 1547.05Z" fill="#FFFFFF" fill-rule="evenodd"/><path d="M3021.96 1547.05C3015.08 1547.05 3008.84 1545.46 3003.24 1542.26 2997.68 1539.03 2993.28 1534.36 2990.04 1528.29 2986.84 1522.18 2985.24 1514.8 2985.24 1506.17 2985.24 1497.39 2986.96 1489.95 2990.44 1483.82 2993.96 1477.71 2998.56 1473.04 3004.28 1469.84 3010.04 1466.65 3016.24 1465.05 3022.92 1465.05 3028.08 1465.05 3032.52 1465.97 3036.2 1467.77 3039.92 1469.59 3043.12 1471.72 3045.8 1474.16L3039.08 1482.86C3036.78 1480.84 3034.38 1479.19 3031.88 1477.91 3029.36 1476.63 3026.54 1475.99 3023.4 1475.99 3018.7 1475.99 3014.48 1477.25 3010.76 1479.75 3007.08 1482.26 3004.16 1485.79 3002.04 1490.36 2999.96 1494.96 2998.92 1500.23 2998.92 1506.17 2998.92 1515.12 3001.12 1522.36 3005.56 1527.89 3010.04 1533.38 3015.88 1536.12 3023.08 1536.12 3026.76 1536.12 3030.14 1535.36 3033.24 1533.8 3036.38 1532.26 3039.12 1530.41 3041.48 1528.21L3047.24 1537.07C3043.72 1540.23 3039.8 1542.66 3035.48 1544.42 3031.2 1546.18 3026.7 1547.05 3021.96 1547.05Z" fill="#FFFFFF" fill-rule="evenodd"/><path d="M3064.35 1545.05 3064.35 1466.62 3077.73 1466.62 3077.73 1545.05ZM3071.25 1450.44C3068.65 1450.44 3066.48 1449.68 3064.76 1448.12 3063.08 1446.57 3062.25 1444.43 3062.25 1441.71 3062.25 1439.14 3063.08 1437.06 3064.76 1435.46 3066.48 1433.86 3068.65 1433.05 3071.25 1433.05 3073.84 1433.05 3075.97 1433.86 3077.65 1435.46 3079.37 1437.06 3080.25 1439.14 3080.25 1441.71 3080.25 1444.43 3079.37 1446.57 3077.65 1448.12 3075.97 1449.68 3073.84 1450.44 3071.25 1450.44Z" fill="#FFFFFF" fill-rule="evenodd"/><path d="M3135.54 1547.05C3128.58 1547.05 3122.28 1545.42 3116.61 1542.18 3110.99 1538.89 3106.51 1534.2 3103.17 1528.13 3099.87 1522.02 3098.24 1514.7 3098.24 1506.17 3098.24 1497.61 3099.91 1490.26 3103.25 1484.14 3106.63 1478.03 3110.99 1473.32 3116.29 1470 3121.64 1466.71 3127.27 1465.05 3133.15 1465.05 3143.05 1465.05 3150.73 1468.39 3156.13 1475.03 3161.54 1481.64 3164.24 1490.52 3164.24 1501.7 3164.24 1503.1 3164.2 1504.48 3164.16 1505.85 3164.11 1507.19 3163.97 1508.33 3163.77 1509.29L3111.21 1509.29C3111.72 1517.55 3114.31 1524.14 3118.92 1529.09 3123.57 1534 3129.65 1536.43 3137.13 1536.43 3140.89 1536.43 3144.32 1535.88 3147.47 1534.76 3150.65 1533.64 3153.67 1532.18 3156.53 1530.37L3161.22 1538.99C3157.88 1541.19 3154.09 1543.06 3149.85 1544.66 3145.66 1546.26 3140.89 1547.05 3135.54 1547.05ZM3111.05 1499.79 3152.71 1499.79C3152.71 1491.86 3151 1485.85 3147.63 1481.74 3144.29 1477.59 3139.55 1475.51 3133.47 1475.51 3128 1475.51 3123.09 1477.65 3118.76 1481.9 3114.47 1486.11 3111.88 1492.08 3111.05 1499.79Z" fill="#FFFFFF" fill-rule="evenodd"/><path d="M3183.25 1545.05 3183.25 1466.97 3194.08 1466.97 3195.19 1478.21 3195.67 1478.21C3199.4 1474.45 3203.34 1471.32 3207.45 1468.8 3211.6 1466.31 3216.34 1465.05 3221.68 1465.05 3229.85 1465.05 3235.8 1467.67 3239.56 1472.87 3243.35 1478.03 3245.25 1485.59 3245.25 1495.52L3245.25 1545.05 3232.2 1545.05 3232.2 1497.36C3232.2 1490.08 3231.01 1484.79 3228.64 1481.48 3226.31 1478.13 3222.59 1476.46 3217.49 1476.46 3213.58 1476.46 3210.06 1477.48 3206.9 1479.49 3203.77 1481.52 3200.25 1484.52 3196.3 1488.5L3196.3 1545.05Z" fill="#FFFFFF" fill-rule="evenodd"/><path d="M3301.98 1547.05C3295.1 1547.05 3288.86 1545.46 3283.26 1542.26 3277.7 1539.03 3273.3 1534.36 3270.06 1528.29 3266.86 1522.18 3265.26 1514.8 3265.26 1506.17 3265.26 1497.39 3266.98 1489.95 3270.46 1483.82 3273.98 1477.71 3278.58 1473.04 3284.3 1469.84 3290.06 1466.65 3296.26 1465.05 3302.94 1465.05 3308.1 1465.05 3312.54 1465.97 3316.22 1467.77 3319.94 1469.59 3323.14 1471.72 3325.82 1474.16L3319.1 1482.86C3316.8 1480.84 3314.4 1479.19 3311.9 1477.91 3309.38 1476.63 3306.56 1475.99 3303.42 1475.99 3298.72 1475.99 3294.5 1477.25 3290.78 1479.75 3287.1 1482.26 3284.18 1485.79 3282.06 1490.36 3279.98 1494.96 3278.94 1500.23 3278.94 1506.17 3278.94 1515.12 3281.14 1522.36 3285.58 1527.89 3290.06 1533.38 3295.9 1536.12 3303.1 1536.12 3306.78 1536.12 3310.16 1535.36 3313.26 1533.8 3316.4 1532.26 3319.14 1530.41 3321.5 1528.21L3327.26 1537.07C3323.74 1540.23 3319.82 1542.66 3315.5 1544.42 3311.22 1546.18 3306.72 1547.05 3301.98 1547.05Z" fill="#FFFFFF" fill-rule="evenodd"/><path d="M3372.56 1547.05C3365.6 1547.05 3359.3 1545.42 3353.63 1542.18 3348.01 1538.89 3343.53 1534.2 3340.19 1528.13 3336.89 1522.02 3335.26 1514.7 3335.26 1506.17 3335.26 1497.61 3336.93 1490.26 3340.27 1484.14 3343.65 1478.03 3348.01 1473.32 3353.31 1470 3358.66 1466.71 3364.29 1465.05 3370.17 1465.05 3380.07 1465.05 3387.75 1468.39 3393.15 1475.03 3398.56 1481.64 3401.26 1490.52 3401.26 1501.7 3401.26 1503.1 3401.22 1504.48 3401.18 1505.85 3401.12 1507.19 3400.98 1508.33 3400.79 1509.29L3348.22 1509.29C3348.74 1517.55 3351.33 1524.14 3355.94 1529.09 3360.59 1534 3366.67 1536.43 3374.15 1536.43 3377.9 1536.43 3381.34 1535.88 3384.48 1534.76 3387.67 1533.64 3390.69 1532.18 3393.55 1530.37L3398.24 1538.99C3394.9 1541.19 3391.1 1543.06 3386.87 1544.66 3382.68 1546.26 3377.9 1547.05 3372.56 1547.05ZM3348.07 1499.79 3389.73 1499.79C3389.73 1491.86 3388.02 1485.85 3384.64 1481.74 3381.3 1477.59 3376.57 1475.51 3370.49 1475.51 3365.02 1475.51 3360.11 1477.65 3355.78 1481.9 3351.48 1486.11 3348.9 1492.08 3348.07 1499.79Z" fill="#FFFFFF" fill-rule="evenodd"/><path d="M3425.19 1514.44C3425.19 1514.44 3750.21 1514.44 4400.19 1514.44" stroke="#47B7D1" stroke-width="20.6041" stroke-miterlimit="8" fill="none" fill-rule="evenodd"/></g></svg>